<?xml version="1.0" encoding="utf-8"?>
<!-- Generator: Adobe Illustrator 25.4.8, SVG Export Plug-In . SVG Version: 6.00 Build 0)  -->
<svg version="1.1" id="Layer_1" xmlns="http://www.w3.org/2000/svg" xmlns:xlink="http://www.w3.org/1999/xlink" x="0px" y="0px"
 viewBox="0 0 300 250" style="enable-background:new 0 0 300 250;" xml:space="preserve">
<style type="text/css">
.st0{fill:#324B9B;}
.st1{fill:#E30613;}
</style>
<g transform="translate(0.000000,250.000000) scale(0.100000,-0.100000)">
<path class="st0" d="M713,1767c-53-78-93-168-124-277c-20-73-24-107-24-235c0-127,4-162,23-230c27-93,73-201,113-265l29-45v61
c0,120,71,209,188,234c51,10,67,10,114-4c59-17,75-27,187-124c101-87,195-132,277-132c108,0,194,54,194,122c0,69-103,119-457,223
c-213,62-288,100-363,182c-114,124-170,350-125,498c8,27,13,50,12,52C755,1828,735,1801,713,1767z"/>
<path class="st1" d="M2240,1787c0-65-19-106-77-165c-65-67-138-92-216-73c-67,17-116,46-197,116c-92,79-197,128-275,129
c-70,1-122-24-143-68c-17-35-9-67,27-109c41-46,123-80,386-162c66-21,169-63,229-94c154-78,225-153,273-286c26-71,26-278-1-353
c-10-29-16-55-14-58c9-8,97,132,133,209c57,125,78,229,77,389c0,105-5,155-21,220c-24,94-105,265-150,318l-30,35L2240,1787z"/>
</g>
</svg>