<?xml version="1.0" standalone="no"?>
<!DOCTYPE svg PUBLIC "-//W3C//DTD SVG 20010904//EN"
 "http://www.w3.org/TR/2001/REC-SVG-20010904/DTD/svg10.dtd">
<svg version="1.0" xmlns="http://www.w3.org/2000/svg"
 width="300.000000pt" height="250.000000pt" viewBox="0 0 300.000000 250.000000"
 preserveAspectRatio="xMidYMid meet">

<g transform="translate(0.000000,250.000000) scale(0.100000,-0.100000)"
fill="#000000" stroke="none">
<path d="M713 1767 c-53 -78 -93 -168 -124 -277 -20 -73 -24 -107 -24 -235 0
-127 4 -162 23 -230 27 -93 73 -201 113 -265 l29 -45 0 61 c0 120 71 209 188
234 51 10 67 10 114 -4 59 -17 75 -27 187 -124 101 -87 195 -132 277 -132 108
0 194 54 194 122 0 69 -103 119 -457 223 -213 62 -288 100 -363 182 -114 124
-170 350 -125 498 8 27 13 50 12 52 -2 1 -22 -26 -44 -60z"/>
<path d="M2240 1787 c0 -65 -19 -106 -77 -165 -65 -67 -138 -92 -216 -73 -67
17 -116 46 -197 116 -92 79 -197 128 -275 129 -70 1 -122 -24 -143 -68 -17
-35 -9 -67 27 -109 41 -46 123 -80 386 -162 66 -21 169 -63 229 -94 154 -78
225 -153 273 -286 26 -71 26 -278 -1 -353 -10 -29 -16 -55 -14 -58 9 -8 97
132 133 209 57 125 78 229 77 389 0 105 -5 155 -21 220 -24 94 -105 265 -150
318 l-30 35 -1 -48z"/>
</g>
</svg>
