<?xml version="1.0" encoding="utf-8"?>
<!-- Generator: Adobe Illustrator 25.4.8, SVG Export Plug-In . SVG Version: 6.00 Build 0)  -->
<svg version="1.1" id="Layer_1" xmlns="http://www.w3.org/2000/svg" xmlns:xlink="http://www.w3.org/1999/xlink" x="0px" y="0px"
	 viewBox="0 0 612 511" style="enable-background:new 0 0 612 511;" xml:space="preserve">
<style type="text/css">
	.st0{fill:#FFFFFF;}
</style>
<g>
	<path class="st0" d="M552.6,202c0,34.6,0,69.2,0,103.9c-0.1,0.3-0.2,0.6-0.2,0.9c-0.2,10.3-0.3,20.7-0.8,31
		c-0.4,9.6-1,19.2-1.9,28.8c-1.3,13.4-4.5,26.3-9.6,38.8c-12,29.5-32.5,50.9-61.5,64c-17.5,7.9-36,11.5-55,12.5
		c-15.8,0.8-31.7,1.1-47.5,1.6c-0.3,0-0.7,0.1-1,0.2c-34.8,0-69.6,0-104.3,0c-0.3-0.1-0.6-0.2-0.9-0.2c-10.3-0.2-20.6-0.3-30.9-0.8
		c-9.6-0.4-19.1-1-28.7-1.9c-13.6-1.4-26.8-4.6-39.5-9.8c-27.7-11.4-48.2-30.5-61.5-57.3c-8.2-16.7-12.4-34.5-13.8-53
		c-1-13.6-1.5-27.3-1.9-40.9c-0.3-9.5-0.3-18.9-0.3-28.4c0.1-35.7,0.1-71.4,0.5-107.1c0.1-12.1,0.9-24.3,1.7-36.4
		c0.9-12.8,3.4-25.3,7.4-37.5c7.8-24.2,22-43.8,42.3-59C159.4,40.4,175.6,34,193,30c10.3-2.4,20.8-3.8,31.3-4.2
		c17.2-0.7,34.5-1.1,51.7-1.5c9-0.2,17.9-0.1,26.9-0.1c25.3,0.1,50.5,0.1,75.8,0.2c9.8,0.1,19.6,0.3,29.3,0.8
		c9.3,0.4,18.5,1,27.7,1.9c14,1.4,27.6,4.8,40.6,10.3c29.4,12.5,50.4,33.5,62.9,62.9c7.2,16.9,10.6,34.6,11.6,52.9
		c0.8,15.9,1.1,31.8,1.6,47.7C552.4,201.2,552.5,201.6,552.6,202z M134.7,253.8c-0.1,0-0.2,0-0.2,0c0.2,23.9,0.3,47.7,0.7,71.6
		c0.2,11.1,0.9,22.1,1.7,33.1c0.6,8.9,2.4,17.6,5.3,26.1c7.9,23.5,23.3,39.9,46.5,48.7c12,4.6,24.6,6.6,37.4,7.2
		c15.3,0.7,30.6,1.2,45.9,1.5c12.5,0.2,25,0.1,37.5,0.1c23.8,0,47.6,0,71.5-0.3c13.6-0.2,27.1-0.8,40.7-1.4c9.5-0.5,18.8-2,28-4.5
		c17.5-4.9,31.9-14.3,42.7-28.9c6.5-8.7,10.4-18.5,13.2-28.9c2.9-11,4-22.3,4.3-33.7c0.4-14.5,0.8-29.1,1.1-43.6
		c0.1-6,0.1-11.9,0.1-17.9c0-19.8,0.1-39.7-0.1-59.5c-0.1-15.9-0.3-31.7-0.7-47.6c-0.3-9.5-0.9-19-1.7-28.5
		c-0.9-9.9-3.1-19.5-6.7-28.7c-7.6-19.5-21-33.7-40.1-42.3c-12.4-5.6-25.5-8-38.9-8.9c-10.7-0.7-21.5-1.1-32.2-1.4
		c-10.5-0.3-21.1-0.3-31.6-0.3c-15-0.1-29.9-0.1-44.9,0c-22.9,0.1-45.8,0.3-68.7,0.7c-9.9,0.2-19.7,0.9-29.5,1.8
		c-9.3,0.8-18.4,2.9-27.2,6.2c-21.6,8.2-36.7,23-45.1,44.6c-4.7,12.1-6.9,24.9-7.4,37.8c-0.7,16.6-1.2,33.2-1.5,49.8
		C134.5,222.3,134.7,238.1,134.7,253.8z"/>
	<path class="st0" d="M205,253.8c-0.2-65.2,53.6-119.1,120.2-117.9c63.8,1.1,116.3,53.5,115.7,119.1
		c-0.6,64.8-53.6,117.5-119.2,116.8C256.8,371.2,204.7,318.2,205,253.8z M246.4,253.9c0,42.1,34.2,76.4,76.1,76.6
		c42.5,0.1,76.8-34,77-76.1c0.2-42.6-34-76.3-75.3-76.9C281.1,176.7,246.3,211.6,246.4,253.9z"/>
	<path class="st0" d="M473.1,131.3c0,15.3-12.4,27.6-27.7,27.5c-15.2-0.1-27.4-12.4-27.4-27.6c0-15.2,12.5-27.7,27.6-27.6
		C460.8,103.7,473.1,116,473.1,131.3z"/>
</g>
</svg>
