<?xml version="1.0" encoding="utf-8"?>
<!-- Generator: Adobe Illustrator 25.4.8, SVG Export Plug-In . SVG Version: 6.00 Build 0)  -->
<svg version="1.1" id="Layer_1" xmlns="http://www.w3.org/2000/svg" xmlns:xlink="http://www.w3.org/1999/xlink" x="0px" y="0px"
	 viewBox="0 0 128 128" style="enable-background:new 0 0 128 128;" xml:space="preserve">
<style type="text/css">
	.st0{fill:#FFFFFF;}
</style>
<g>
	<path class="st0" d="M125.1,50.2c0,9.2,0,18.4,0,27.7c0,0.1-0.1,0.2-0.1,0.2c-0.1,2.7-0.1,5.5-0.2,8.3c-0.1,2.6-0.3,5.1-0.5,7.7
		c-0.3,3.6-1.2,7-2.6,10.3c-3.2,7.9-8.6,13.5-16.4,17c-4.7,2.1-9.6,3.1-14.6,3.3c-4.2,0.2-8.4,0.3-12.6,0.4c-0.1,0-0.2,0-0.3,0.1
		c-9.3,0-18.5,0-27.8,0c-0.1,0-0.2-0.1-0.2-0.1c-2.7-0.1-5.5-0.1-8.2-0.2c-2.6-0.1-5.1-0.3-7.6-0.5c-3.6-0.4-7.1-1.2-10.5-2.6
		c-7.4-3-12.8-8.1-16.4-15.3c-2.2-4.4-3.3-9.2-3.7-14.1C3.2,88.9,3.1,85.2,3,81.6c-0.1-2.5-0.1-5-0.1-7.6c0-9.5,0-19,0.1-28.5
		c0-3.2,0.2-6.5,0.5-9.7c0.2-3.4,0.9-6.7,2-10c2.1-6.4,5.9-11.7,11.3-15.7c3.8-2.9,8.1-4.6,12.7-5.7c2.7-0.6,5.5-1,8.3-1.1
		c4.6-0.2,9.2-0.3,13.8-0.4c2.4-0.1,4.8,0,7.2,0c6.7,0,13.4,0,20.2,0.1c2.6,0,5.2,0.1,7.8,0.2c2.5,0.1,4.9,0.3,7.4,0.5
		c3.7,0.4,7.3,1.3,10.8,2.7c7.8,3.3,13.4,8.9,16.7,16.7c1.9,4.5,2.8,9.2,3.1,14.1c0.2,4.2,0.3,8.5,0.4,12.7
		C125.1,50,125.1,50.1,125.1,50.2z M13.9,64C13.9,64,13.8,64,13.9,64c0,6.4,0,12.7,0.1,19.1c0.1,3,0.2,5.9,0.5,8.8
		c0.2,2.4,0.6,4.7,1.4,6.9c2.1,6.3,6.2,10.6,12.4,13c3.2,1.2,6.5,1.8,10,1.9c4.1,0.2,8.1,0.3,12.2,0.4c3.3,0.1,6.7,0,10,0
		c6.3,0,12.7,0,19-0.1c3.6-0.1,7.2-0.2,10.8-0.4c2.5-0.1,5-0.5,7.5-1.2c4.7-1.3,8.5-3.8,11.4-7.7c1.7-2.3,2.8-4.9,3.5-7.7
		c0.8-2.9,1.1-5.9,1.1-9c0.1-3.9,0.2-7.7,0.3-11.6c0-1.6,0-3.2,0-4.8c0-5.3,0-10.6,0-15.8c0-4.2-0.1-8.4-0.2-12.7
		c-0.1-2.5-0.2-5.1-0.5-7.6c-0.2-2.6-0.8-5.2-1.8-7.6c-2-5.2-5.6-9-10.7-11.3c-3.3-1.5-6.8-2.1-10.4-2.4c-2.8-0.2-5.7-0.3-8.6-0.4
		C79.2,14,76.4,14,73.6,14c-4,0-8,0-12,0c-6.1,0-12.2,0.1-18.3,0.2c-2.6,0.1-5.2,0.2-7.9,0.5c-2.5,0.2-4.9,0.8-7.2,1.7
		c-5.7,2.2-9.8,6.1-12,11.9c-1.3,3.2-1.8,6.6-2,10.1c-0.2,4.4-0.3,8.8-0.4,13.3C13.8,55.6,13.9,59.8,13.9,64z"/>
	<path class="st0" d="M32.6,64c-0.1-17.4,14.3-31.7,32-31.4c17,0.3,31,14.2,30.8,31.7c-0.2,17.2-14.3,31.3-31.7,31.1
		C46.4,95.3,32.5,81.2,32.6,64z M43.6,64c0,11.2,9.1,20.3,20.3,20.4c11.3,0,20.4-9,20.5-20.3c0.1-11.3-9-20.3-20-20.5
		C52.9,43.5,43.6,52.8,43.6,64z"/>
	<path class="st0" d="M104,31.4c0,4.1-3.3,7.3-7.4,7.3c-4,0-7.3-3.3-7.3-7.3s3.3-7.4,7.3-7.3C100.7,24.1,104,27.3,104,31.4z"/>
</g>
</svg>
