<?xml version="1.0" encoding="utf-8"?>
<!-- Generator: Adobe Illustrator 25.4.8, SVG Export Plug-In . SVG Version: 6.00 Build 0)  -->
<svg version="1.1" id="Layer_1" xmlns="http://www.w3.org/2000/svg" xmlns:xlink="http://www.w3.org/1999/xlink" x="0px" y="0px"
	 viewBox="0 0 128 128" style="enable-background:new 0 0 128 128;" xml:space="preserve">
<style type="text/css">
	.st0{fill:#FFFFFF;}
</style>
<g>
	<path class="st0" d="M20.3,63.1c0-12.1,0-24.2,0-36.3c0-2.6,1.7-5.2,4.3-6c0.5-0.2,1.1-0.2,1.6-0.3c0.2,0,0.5,0,0.7,0
		c24.1,0,48.2,0,72.2,0c1.7,0,3.2,0.5,4.4,1.6c1.3,1.1,2,2.6,2.1,4.3c0,0.2,0,0.4,0,0.6c0,24.1,0,48.3,0,72.4c0,1.7-0.5,3.2-1.6,4.4
		c-1.1,1.3-2.6,2-4.3,2c-0.2,0-0.4,0-0.6,0c-24.1,0-48.1,0-72.2,0c-1.8,0-3.3-0.5-4.6-1.7c-1.2-1.1-1.9-2.5-1.9-4.1
		c0-6.1,0-12.2,0-18.3C20.3,75.4,20.3,69.2,20.3,63.1z M66.2,93.1c0-0.2,0-0.4,0-0.6c0-6.4,0-12.8,0-19.2c0-1.7,0.1-3.5,0.5-5.2
		c0.4-1.8,1.2-3.4,2.8-4.5c1.5-1,3.1-1.2,4.8-1.1c2.7,0.1,4.6,1.5,5.4,4.2c0.5,1.7,0.7,3.4,0.7,5.2c0,6.9,0,13.8,0,20.7
		c0,0.2,0,0.4,0,0.5c4.3,0,8.4,0,12.7,0c0-0.2,0-0.4,0-0.6c0-6.8,0-13.6,0-20.4c0-2.1-0.1-4.3-0.2-6.4c-0.2-2.2-0.6-4.4-1.4-6.5
		c-1.3-3.4-3.6-5.7-7.1-6.9c-3.1-1-6.3-1.3-9.5-0.6c-3.8,0.8-6.8,2.6-8.8,6c-0.1,0.1-0.2,0.2-0.2,0.3c0,0-0.1,0-0.1,0
		c0-1.8,0-3.7,0-5.5c-4.1,0-8.1,0-12.1,0c0,13.6,0,27.1,0,40.7C57.7,93.1,61.9,93.1,66.2,93.1z M45.5,93.1c0-13.6,0-27.1,0-40.7
		c-4.2,0-8.4,0-12.6,0c0,13.6,0,27.1,0,40.7C37.1,93.1,41.3,93.1,45.5,93.1z M46.6,39.5c0-4-3.3-7.4-7.3-7.3c-4.1,0-7.3,3.1-7.3,7.4
		c0,4.3,3.3,7.3,7.2,7.3C43.3,46.9,46.6,43.5,46.6,39.5z"/>
</g>
</svg>
