<?xml version="1.0" encoding="utf-8"?>
<!-- Generator: Adobe Illustrator 25.4.8, SVG Export Plug-In . SVG Version: 6.00 Build 0)  -->
<svg version="1.1" id="Layer_1" xmlns="http://www.w3.org/2000/svg" xmlns:xlink="http://www.w3.org/1999/xlink" x="0px" y="0px"
	 viewBox="0 0 128 128" style="enable-background:new 0 0 128 128;" xml:space="preserve">
<style type="text/css">
	.st0{fill:#FFFFFF;}
</style>
<g>
	<path class="st0" d="M4.5,63.9c0-16.9,0-33.8,0-50.7c0-3.6,2.4-7.3,6-8.4c0.7-0.3,1.5-0.3,2.2-0.4c0.3,0,0.7,0,1,0
		c33.6,0,67.3,0,100.7,0c2.4,0,4.5,0.7,6.1,2.2c1.8,1.5,2.8,3.6,2.9,6c0,0.3,0,0.6,0,0.8c0,33.6,0,67.4,0,101c0,2.4-0.7,4.5-2.2,6.1
		c-1.5,1.8-3.6,2.8-6,2.8c-0.3,0-0.6,0-0.8,0c-33.6,0-67.1,0-100.7,0c-2.5,0-4.6-0.7-6.4-2.4c-1.7-1.5-2.7-3.5-2.7-5.7
		c0-8.5,0-17,0-25.5C4.5,81.1,4.5,72.4,4.5,63.9z M68.5,105.8c0-0.3,0-0.6,0-0.8c0-8.9,0-17.9,0-26.8c0-2.4,0.1-4.9,0.7-7.3
		c0.6-2.5,1.7-4.7,3.9-6.3c2.1-1.4,4.3-1.7,6.7-1.5c3.8,0.1,6.4,2.1,7.5,5.9c0.7,2.4,1,4.7,1,7.3c0,9.6,0,19.3,0,28.9
		c0,0.3,0,0.6,0,0.7c6,0,11.7,0,17.7,0c0-0.3,0-0.6,0-0.8c0-9.5,0-19,0-28.5c0-2.9-0.1-6-0.3-8.9c-0.3-3.1-0.8-6.1-2-9.1
		c-1.8-4.7-5-8-9.9-9.6c-4.3-1.4-8.8-1.8-13.3-0.8c-5.3,1.1-9.5,3.6-12.3,8.4c-0.1,0.1-0.3,0.3-0.3,0.4H68c0-2.5,0-5.2,0-7.7
		c-5.7,0-11.3,0-16.9,0c0,19,0,37.8,0,56.8C56.7,105.8,62.5,105.8,68.5,105.8z M39.7,105.8c0-19,0-37.8,0-56.8c-5.9,0-11.7,0-17.6,0
		c0,19,0,37.8,0,56.8C27.9,105.8,33.8,105.8,39.7,105.8z M41.2,31c0-5.6-4.6-10.3-10.2-10.2c-5.7,0-10.2,4.3-10.2,10.3
		s4.6,10.2,10,10.2C36.6,41.3,41.2,36.6,41.2,31z"/>
</g>
</svg>
