<?xml version="1.0" encoding="utf-8"?>
<!-- Generator: Adobe Illustrator 25.4.8, SVG Export Plug-In . SVG Version: 6.00 Build 0)  -->
<svg version="1.1" id="Layer_1" xmlns="http://www.w3.org/2000/svg" xmlns:xlink="http://www.w3.org/1999/xlink" x="0px" y="0px"
	 viewBox="0 0 600 135" style="enable-background:new 0 0 600 135;" xml:space="preserve">
<style type="text/css">
	.st0{enable-background:new    ;}
	.st1{fill:#FFFFFF;}
	.st2{fill:#7F3F98;}
</style>
<g class="st0">
	<path class="st1" d="M59.3,95.7c-3.6,1.8-9.3,3.4-17.1,4.8c-7.2,1.3-13,2-17.5,2c-3.2,0-5.6-0.5-7-1.6c-1.9-1.4-2.9-4-2.9-7.8
		l1-16.8C16.5,60.8,17,43.5,17,24.6c0-1.5,0.5-2.7,1.4-3.7s2-1.5,3.4-1.5s2.5,0.5,3.4,1.5s1.4,2.3,1.4,3.7c0,19.1-0.4,36.6-1.3,52.3
		l-0.6,7.7c-0.3,2.8-0.4,5.3-0.3,7.5c8.4,0.1,19-2,31.8-6.3c0.5-0.2,1.1-0.3,1.5-0.3c1.4,0,2.5,0.6,3.5,1.7c0.8,1.1,1.2,2.3,1.2,3.6
		C62.3,93.1,61.3,94.7,59.3,95.7z"/>
	<path class="st1" d="M110.2,68.1c0,2.4,0,6.1,0,11s0,8.5,0,11c0,0.7,0.1,1.9,0.2,3.4s0.2,2.7,0.2,3.4c0,1.5-0.5,2.7-1.4,3.6
		s-2.1,1.4-3.4,1.4c-2.5,0-4-1.6-4.7-4.8c-4,2.2-8.6,3.3-13.9,3.3c-4.2,0-7.7-1-10.5-2.9c-3.1-2.2-4.9-5.3-5.4-9.5
		c-1.3-9-1.9-17-1.9-24c0-4.6,0.5-9.9,1.4-15.9c0.4-2.9,2-4.4,4.6-4.4c1.4,0,2.5,0.5,3.5,1.4c0.9,0.9,1.4,2.1,1.4,3.6
		c0,1.6-0.2,4-0.7,7.5c-0.5,3.4-0.7,6-0.7,7.8c0,5.7,0.2,10.5,0.5,14.5c0.4,4,0.9,7.3,1.6,9.7c1.1,0.6,2.1,1.1,3.1,1.4s2,0.5,3,0.5
		c4.3,0,8.9-0.7,13.6-2.2V77.6l-0.1-9.9c0-7.3,0.3-13.7,0.9-19.1c0.4-3.1,1.9-4.7,4.7-4.7c1.4,0,2.5,0.5,3.5,1.4
		c0.9,0.9,1.4,2.1,1.3,3.6L110.2,68.1z"/>
	<path class="st1" d="M133.6,74.7c0,2,0.1,5.1,0.2,9.1c0.1,4,0.2,7.1,0.2,9.1c0,1.5-0.4,2.7-1.3,3.7c-0.9,0.9-2,1.4-3.4,1.4
		c-1.4,0-2.5-0.5-3.4-1.4s-1.3-2.2-1.3-3.7c0-2-0.1-5.1-0.2-9.1s-0.2-7.1-0.2-9.1c0-3.2,0.2-7.2,0.5-11.9c0.3-4.8,0.5-8.7,0.5-11.9
		c0-1.5,0.4-2.8,1.3-3.7s2-1.4,3.4-1.4c1.4,0,2.5,0.5,3.4,1.4s1.3,2.2,1.3,3.7c0,3.2-0.2,7.2-0.5,11.9S133.6,71.5,133.6,74.7z
		 M131.5,33.4c-1.5,0-2.9-0.6-4-1.7c-1.1-1.2-1.7-2.5-1.7-4.2s0.6-3,1.7-4.2c1.1-1.2,2.5-1.7,4-1.7s2.9,0.6,4,1.7
		c1.1,1.2,1.7,2.5,1.7,4.2s-0.6,3-1.7,4.2C134.3,32.8,133,33.4,131.5,33.4z"/>
</g>
<g class="st0">
	<path class="st1" d="M182.4,58.6c-1.8,0-3-0.6-3.7-1.9c-0.5-0.9-0.9-2.7-1.3-5.5c-2.4,0.6-6.1,1.8-11.1,3.6c-5.2,2.2-7.8,4.8-7.8,8
		c1,0.4,1.9,0.6,2.8,0.8c7.4,1.4,12.9,3.3,16.5,5.7c5.2,3.6,7.9,8.7,7.9,15.5c0,5.5-2.3,9.7-6.8,12.5c-3.8,2.3-8.5,3.5-14.3,3.5
		c-4.2,0-8.2-0.7-12-2.2c-4.9-1.9-7.4-4.5-7.4-7.9c0-1.4,0.5-2.5,1.5-3.6c1-1,2.2-1.5,3.4-1.5c1,0,2.3,0.8,3.9,2.4
		c0.8,0.8,2.5,1.4,5.2,1.9c2.2,0.4,4,0.6,5.4,0.6c2.7,0,5.1-0.3,7.1-1c3-1,4.5-2.5,4.5-4.7c0-4.6-3.1-7.7-9.2-9.4l-5-1.2
		c-4.3-1-7.3-2.1-9.1-3.5c-2.6-1.9-3.9-4.8-3.9-8.6c0-7.1,3.2-12.1,9.5-15.1c1.9-0.9,5-2,9.3-3.3s7.3-2.3,9.1-3.2
		c1.3-0.6,2.7-0.9,4.3-0.9c1.4,0,2.5,0.5,3.4,1.4s1.3,2.2,1.3,3.7c0,1,0.2,2.4,0.6,4.3c0.4,1.9,0.6,3.3,0.6,4.3
		c0,1.5-0.4,2.8-1.3,3.7C184.9,58.2,183.8,58.6,182.4,58.6z"/>
</g>
<g class="st0">
	<path class="st2" d="M215.5,66.6c1.8,1.4,4,3.5,6.6,6.5c3.1,3.4,5.3,5.7,6.4,6.7c1.2,1.1,1.7,2.2,1.7,3.5s-0.4,2.4-1.3,3.3
		c-0.9,0.9-1.9,1.4-3,1.4c-0.9,0-1.8-0.4-2.7-1.1c-1.3-1-4-3.8-8.2-8.4c-3.2-3.6-6.3-5.9-9.3-7.2c-2.4-0.9-3.7-2.4-3.7-4.2
		c0-1.7,1.1-3.1,3.3-4.2c3-1.5,6.3-4.3,9.8-8.2c5-5.5,7.9-8.6,8.9-9.5c0.9-0.8,1.9-1.2,2.9-1.2c1.2,0,2.2,0.5,3.1,1.4
		c0.9,0.9,1.3,2,1.3,3.3c0,1.2-0.5,2.2-1.4,3.3C226.8,55.2,222,60.2,215.5,66.6z"/>
</g>
<g class="st0">
	<path class="st2" d="M238.4,102.3c-1.2,0-2.2-0.4-3.1-1.3c-0.9-0.8-1.3-1.9-1.3-3.2c0-0.5,0.1-1.1,0.3-1.7
		c2.5-7.3,7.2-17.8,14.2-31.5c6.9-13.7,11.7-24.2,14.2-31.5c4.2-12.1,7.4-18.1,9.5-18c1.2,0,2.2,0.5,3.1,1.3
		c0.9,0.9,1.3,1.9,1.3,3.1c0,0.8-0.2,1.7-0.5,2.8l-5.4,13.8c-2.2,6.3-5.2,13.5-9.2,21.7L251,79l-8.7,20.4
		C241.4,101.3,240.1,102.3,238.4,102.3z"/>
</g>
<g class="st0">
	<path class="st2" d="M312.5,64.1c0,1.2-0.6,2.4-1.8,3.6c-7.6,7.5-15.7,14.1-24,19.7c-0.9,0.6-1.8,0.9-2.6,0.9c-1.2,0-2.2-0.5-3-1.4
		c-0.9-1-1.3-2.1-1.3-3.3c0-1.4,0.6-2.5,1.9-3.6l18.7-15c-2.9-2-6.4-5.1-10.6-9.2c-5.1-5.1-7.7-8.7-7.7-10.6c0-1.2,0.5-2.3,1.3-3.2
		c0.9-0.9,1.9-1.4,3.1-1.4s2.3,0.6,3.2,1.7c7.3,8.6,14,14.6,19.9,17.8C311.5,61.2,312.5,62.5,312.5,64.1z"/>
</g>
<g class="st0">
	<path class="st1" d="M373.9,31c-0.6,0-1.2-0.1-1.8-0.4c-4-1.6-9.3-2.3-15.8-2.3c-2.1,0-4.6,0.2-7.4,0.5s-6,0.8-9.6,1.5l-0.1,22
		c6.2-1.7,10.9-2.6,14-2.6c4.9,0,10.1,0.3,15.4,0.9c3,0.3,4.5,2.1,4.5,5.2c0,1.5-0.5,2.8-1.4,3.8s-2.1,1.5-3.5,1.5
		c-1.7,0-4.2-0.2-7.5-0.5s-5.8-0.5-7.5-0.5c-2.2,0-6.9,1-14.2,2.9l-0.4,35c0,1.5-0.5,2.7-1.3,3.7c-0.9,1-2,1.5-3.4,1.5
		s-2.5-0.5-3.4-1.5s-1.4-2.2-1.4-3.7c0-6.7,0.1-16.7,0.4-30.1c0.2-13.4,0.4-23.4,0.4-30.1c0-1.5,0-3.7-0.1-6.7c0-3-0.1-5.2-0.1-6.7
		s0.4-2.7,1.3-3.8s2-1.5,3.4-1.5c1.1,0,2,0.3,2.8,0.9c4-0.7,7.6-1.3,10.7-1.7s6-0.5,8.4-0.5c3.7,0,7.9,0.6,12.7,1.7
		c6.5,1.6,9.7,3.6,9.7,6.1c0,1.4-0.4,2.6-1.3,3.6C376.4,30.4,375.3,31,373.9,31z"/>
</g>
<g class="st0">
	<path class="st1" d="M403.8,100.1c-7.3,0-13.1-1.9-17.6-5.7c-4.9-4.2-7.4-10.2-7.4-17.8c0-8.8,2-16.2,6.1-22.2
		c4.4-6.5,10.3-9.8,17.6-9.8c5.3,0,9.7,0.9,13.1,2.8c4.1,2.3,6.2,5.9,6.2,10.8c0,3.4-1.8,6.5-5.4,9.3c-1.6,1.2-5,3.1-10.2,5.7
		l-18.4,9.2c1.8,2.8,4,4.9,6.7,6.4c2.7,1.4,5.8,2.1,9.4,2.1c2.2,0,4.8-0.4,7.8-1.3c3.8-1.1,6.2-2.6,7.3-4.4c1.1-1.8,2.3-2.7,3.5-2.7
		c1.1,0,2.1,0.4,3,1.3s1.3,1.9,1.3,3.1c0,3.8-2.9,7-8.6,9.7C413.2,99,408.4,100.1,403.8,100.1z M402.5,53.8c-3.9,0-7.2,1.6-9.8,4.8
		c-2.6,3.2-4.5,8-5.8,14.5l14.8-7.4c5.8-3,10-5.6,12.4-7.8C411.3,55.2,407.4,53.8,402.5,53.8z"/>
	<path class="st1" d="M447.6,57.8l-0.7,25.3c0,2.7-0.1,6.6-0.4,11.8c-0.3,3.4-1.9,5.1-4.7,5.1c-3.1,0-4.7-1.7-4.7-5.2
		c0-4.1,0.2-10.3,0.5-18.5s0.5-14.4,0.5-18.5c0-5.4,0.1-11.5,0.2-18.4c0.2-6.9,0.2-13,0.2-18.4c0-3.4,1.6-5.1,4.7-5.1
		c3.2,0,4.8,1.7,4.8,5.1c0,5.4-0.1,11.5-0.2,18.4C447.7,46.3,447.6,52.5,447.6,57.8z"/>
	<path class="st1" d="M473.7,74.7c0,2,0.1,5.1,0.2,9.1s0.2,7.1,0.2,9.1c0,1.5-0.4,2.7-1.3,3.7s-2,1.4-3.4,1.4s-2.5-0.5-3.4-1.4
		s-1.3-2.2-1.3-3.7c0-2-0.1-5.1-0.2-9.1s-0.2-7.1-0.2-9.1c0-3.2,0.2-7.2,0.5-11.9c0.3-4.8,0.5-8.7,0.5-11.9c0-1.5,0.4-2.8,1.3-3.7
		s2-1.4,3.4-1.4s2.5,0.5,3.4,1.4s1.3,2.2,1.3,3.7c0,3.2-0.2,7.2-0.5,11.9C473.9,67.5,473.7,71.5,473.7,74.7z M471.6,33.4
		c-1.5,0-2.9-0.6-4-1.7c-1.1-1.2-1.7-2.5-1.7-4.2s0.6-3,1.7-4.2s2.5-1.7,4-1.7s2.9,0.6,4,1.7c1.1,1.2,1.7,2.5,1.7,4.2
		s-0.6,3-1.7,4.2C474.4,32.8,473.1,33.4,471.6,33.4z"/>
	<path class="st1" d="M510.5,99.5c-3.2,0-6.7-0.5-10.6-1.6l-0.1,24.3c0,1.5-0.4,2.7-1.3,3.7c-0.9,0.9-2,1.4-3.4,1.4
		s-2.5-0.5-3.4-1.4s-1.3-2.2-1.3-3.7l0.1-20.3V81.6c-0.1-7.4-0.3-14.2-0.7-20.3L489.1,51c0-2.4,0.4-4.4,1.3-6.1c1-2,2.4-3,4.2-3
		c1.3,0,2.3,0.5,3.2,1.4c0.9,0.9,1.3,2.1,1.3,3.4c0,0.3,0,0.9-0.1,1.7c-0.2,1.1-0.3,2-0.3,2.9c2.8-2,5.4-3.5,8-4.5s5-1.5,7.4-1.5
		c6.6,0,11.4,3.1,14.5,9.3c2.4,4.9,3.6,11.3,3.6,19.4c0,7.3-1.9,13.4-5.6,18.1C522.4,97,517.1,99.5,510.5,99.5z M513.8,55.5
		c-3,0-5.6,0.7-8,2.1c-1.7,1-3.9,2.8-6.5,5.4c0.4,7.7,0.6,15.8,0.6,24.2c3.5,1.4,7,2.1,10.5,2.1c4,0,7.1-1.6,9.2-4.7
		c1.8-2.7,2.7-6.3,2.7-10.7c0-6.2-0.7-10.8-2.1-13.9C518.9,57,516.7,55.5,513.8,55.5z"/>
	<path class="st1" d="M565.3,100.1c-7.3,0-13.1-1.9-17.6-5.7c-4.9-4.2-7.4-10.2-7.4-17.8c0-8.8,2-16.2,6.1-22.2
		c4.4-6.5,10.3-9.8,17.6-9.8c5.3,0,9.7,0.9,13.1,2.8c4.1,2.3,6.2,5.9,6.2,10.8c0,3.4-1.8,6.5-5.4,9.3c-1.6,1.2-5,3.1-10.2,5.7
		l-18.4,9.2c1.8,2.8,4,4.9,6.7,6.4c2.7,1.4,5.8,2.1,9.4,2.1c2.2,0,4.8-0.4,7.8-1.3c3.8-1.1,6.2-2.6,7.3-4.4s2.3-2.7,3.5-2.7
		c1.1,0,2.1,0.4,3,1.3s1.3,1.9,1.3,3.1c0,3.8-2.9,7-8.6,9.7C574.7,99,570,100.1,565.3,100.1z M564,53.8c-3.9,0-7.2,1.6-9.8,4.8
		s-4.5,8-5.8,14.5l14.8-7.4c5.8-3,10-5.6,12.4-7.8C572.9,55.2,569,53.8,564,53.8z"/>
</g>
</svg>
