<?xml version="1.0" encoding="utf-8"?>
<!-- Generator: Adobe Illustrator 25.4.8, SVG Export Plug-In . SVG Version: 6.00 Build 0)  -->
<svg version="1.1" id="Layer_1" xmlns="http://www.w3.org/2000/svg" xmlns:xlink="http://www.w3.org/1999/xlink" x="0px" y="0px"
	 viewBox="0 0 536.79 201.03" style="enable-background:new 0 0 536.79 201.03;" xml:space="preserve">
<style type="text/css">
	.st0{fill:#FFFFFF;}
</style>
<g>
	<polygon class="st0" points="27.61,61.84 21.39,61.84 21.39,130.08 24.5,130.08 27.61,130.08 49.89,130.08 49.89,120.98 
		27.61,120.98 	"/>
	<path class="st0" d="M80.35,105.72c0,4.98-0.82,8.82-2.46,11.55c-1.64,2.72-3.95,4.08-6.94,4.08c-2.97,0-5.27-1.36-6.9-4.08
		c-1.63-2.72-2.44-6.57-2.44-11.55V61.84h-6.23v43.56c0,5.35,0.61,9.93,1.83,13.73s3,6.7,5.33,8.68c2.33,1.99,5.13,2.98,8.41,2.98
		c3.3,0,6.11-0.99,8.45-2.98c2.34-1.99,4.12-4.88,5.34-8.68c1.22-3.8,1.83-8.38,1.83-13.73V61.84h-6.23V105.72z"/>
	<rect x="96.34" y="61.84" class="st0" width="6.23" height="68.24"/>
	<path class="st0" d="M136.86,94.74c-1.8-1.16-4.04-2.16-6.73-3c-0.1-0.03-0.21-0.06-0.34-0.09c-0.12-0.03-0.23-0.06-0.34-0.09
		c-0.08-0.03-0.16-0.05-0.23-0.07c-0.07-0.01-0.15-0.04-0.23-0.07c-2.3-0.69-4.09-1.35-5.39-1.99c-1.29-0.64-2.37-1.63-3.24-2.98
		c-0.86-1.34-1.3-3.19-1.3-5.54v-0.05c0-3.41,0.84-6.05,2.52-7.91c1.68-1.86,4.03-2.79,7.07-2.79c1.69,0,3.37,0.48,5.05,1.43
		c1.68,0.96,3.36,2.39,5.05,4.29l3.54-7.6c-1.44-1.6-2.91-2.92-4.41-3.97c-1.5-1.05-3.01-1.84-4.55-2.37s-3.1-0.8-4.68-0.8
		c-3.32,0-6.15,0.78-8.51,2.35c-2.36,1.56-4.16,3.84-5.39,6.83c-1.23,2.99-1.85,6.59-1.85,10.82v0.05c0,4.82,0.66,8.54,1.98,11.15
		c1.32,2.61,2.91,4.41,4.78,5.4c1.86,0.99,4.28,1.87,7.25,2.65l0.46,0.14c0.06,0.03,0.13,0.05,0.2,0.05s0.14,0.02,0.2,0.05
		c2.01,0.56,3.66,1.18,4.93,1.85c1.27,0.67,2.31,1.71,3.11,3.1c0.8,1.39,1.21,3.28,1.21,5.66v0.05c0,3.35-0.89,5.94-2.66,7.77
		c-1.77,1.83-4.26,2.75-7.48,2.75c-2.38,0-4.59-0.56-6.62-1.69c-2.03-1.13-3.9-2.82-5.58-5.07l-3.88,7.32
		c1.44,1.88,3,3.44,4.65,4.69c1.66,1.25,3.44,2.19,5.36,2.82c1.91,0.62,3.94,0.94,6.07,0.94c3.44,0,6.37-0.77,8.81-2.32
		c2.43-1.55,4.29-3.8,5.57-6.76s1.92-6.52,1.92-10.68v-0.09c0-4.47-0.61-8-1.82-10.58C140.16,97.77,138.66,95.9,136.86,94.74z"/>
</g>
<g>
	<polygon class="st0" points="179.56,97.05 210.04,70.62 210.04,46.81 154.95,97.05 210.04,147.41 210.22,124.98 	"/>
	<polygon class="st0" points="270.26,48.28 270.26,72.09 300.73,98.52 270.08,126.44 270.26,148.88 325.35,98.52 	"/>
	<path class="st0" d="M224.71,176.4h-11.6L249.3,27.8h11.6L224.71,176.4z"/>
</g>
<polygon class="st0" points="339.04,64.46 336.1,64.46 336.1,132.7 342.1,132.7 342.1,103.98 359.77,103.98 359.77,94.87 
	342.1,94.87 342.1,73.56 363,73.56 363,64.46 342.1,64.46 "/>
<polygon class="st0" points="373.27,64.46 370.36,64.46 370.36,132.7 373.27,132.7 376.35,132.7 397.82,132.7 397.82,123.6 
	376.35,123.6 376.35,103.37 394.59,103.37 394.59,94.26 376.35,94.26 376.35,73.56 397.82,73.56 397.82,64.46 376.35,64.46 "/>
<polygon class="st0" points="412.35,64.46 406.35,64.46 406.35,132.7 409.35,132.7 412.35,132.7 433.81,132.7 433.81,123.6 
	412.35,123.6 "/>
<rect x="440.87" y="64.46" class="st0" width="6" height="68.24"/>
<path class="st0" d="M480.74,67.06c-1.94-1.74-4.19-2.6-6.73-2.6h-10.56h-2.91h-3.09v68.24h6v-26.47h10.56
	c2.55,0,4.79-0.86,6.73-2.58s3.45-4.15,4.51-7.3c1.07-3.14,1.6-6.8,1.6-10.96c0-4.16-0.53-7.82-1.6-10.98
	C484.19,71.25,482.68,68.8,480.74,67.06z M479.9,91.54c-0.54,1.78-1.3,3.16-2.28,4.13c-0.98,0.97-2.12,1.45-3.41,1.45h-10.76V73.56
	h10.76c1.29,0,2.43,0.49,3.41,1.48c0.98,0.99,1.74,2.37,2.28,4.15c0.54,1.78,0.81,3.85,0.81,6.2
	C480.71,87.71,480.44,89.76,479.9,91.54z"/>
<polygon class="st0" points="521.82,73.56 521.82,64.46 500.36,64.46 497.27,64.46 494.36,64.46 494.36,132.7 497.27,132.7 
	500.36,132.7 521.82,132.7 521.82,123.6 500.36,123.6 500.36,103.37 518.59,103.37 518.59,94.26 500.36,94.26 500.36,73.56 "/>
</svg>
